<?xml version="1.0" encoding="iso-8859-1"?>
<!-- Generator: Adobe Illustrator 19.0.0, SVG Export Plug-In . SVG Version: 6.00 Build 0)  -->
<svg xmlns="http://www.w3.org/2000/svg" xmlns:xlink="http://www.w3.org/1999/xlink" version="1.1" id="Capa_1" x="0px" y="0px" viewBox="0 0 460 460" style="enable-background:new 0 0 460 460;" xml:space="preserve" width="512" height="512">
<g id="XMLID_1377_">
	<path id="XMLID_1394_" style="fill:#6C6559;" d="M460,231.396V295c0,11.046-8.954,20-20,20h-80H20c-11.046,0-20-8.954-20-20V125   c0-11.046,8.954-20,20-20h320c11.046,0,20,8.954,20,20h20v-5c0-2.761,2.239-5,5-5h10c2.761,0,5,2.239,5,5v30c0,2.761-2.239,5-5,5   h-10c-2.761,0-5-2.239-5-5v-15h-20v51.802c0,4.767,3.365,8.871,8.039,9.806l75.883,15.177C453.271,213.654,460,221.862,460,231.396   z"/>
	<path id="XMLID_1393_" style="fill:#454748;" d="M395,155h-10c-2.761,0-5-2.239-5-5v-30c0-2.761,2.239-5,5-5h10   c2.761,0,5,2.239,5,5v30C400,152.761,397.761,155,395,155z"/>
	<path id="XMLID_1392_" style="fill:#E5B352;" d="M460,225.903V285h-13.832c-3.744,0-7.262-1.626-9.834-4.346   C427.22,271.015,414.313,265,400,265c-20.501,0-38.111,12.344-45.828,30H175.828c-7.717-17.656-25.326-30-45.828-30   s-38.111,12.344-45.828,30H0V118.3c0-7.345,5.955-13.3,13.3-13.3h333.4c7.345,0,13.3,5.955,13.3,13.3v68.502   c0,4.767,3.365,8.871,8.039,9.806l81.269,16.254C455.525,214.105,460,219.564,460,225.903z"/>
	<path id="XMLID_1389_" style="fill:#454748;" d="M170,315c0,22.091-17.909,40-40,40s-40-17.909-40-40s17.909-40,40-40   S170,292.909,170,315z M400,275c-22.091,0-40,17.909-40,40s17.909,40,40,40s40-17.909,40-40S422.091,275,400,275z"/>
	<path id="XMLID_1388_" style="fill:#A6A293;" d="M150,315c0,11.046-8.954,20-20,20s-20-8.954-20-20s8.954-20,20-20   S150,303.954,150,315z M400,295c-11.046,0-20,8.954-20,20s8.954,20,20,20s20-8.954,20-20S411.046,295,400,295z"/>
	<path id="XMLID_1387_" style="fill:#454748;" d="M120,195H30c-5.523,0-10-4.477-10-10v-40c0-5.523,4.477-10,10-10h90   c5.523,0,10,4.477,10,10v40C130,190.523,125.523,195,120,195z M250,185v-40c0-5.523-4.477-10-10-10h-90c-5.523,0-10,4.477-10,10v40   c0,5.523,4.477,10,10,10h90C245.523,195,250,190.523,250,185z"/>
	<path id="XMLID_1386_" style="fill:#555859;" d="M115,185H35c-2.761,0-5-2.239-5-5v-30c0-2.761,2.239-5,5-5h80c2.761,0,5,2.239,5,5   v30C120,182.761,117.761,185,115,185z M240,180v-30c0-2.761-2.239-5-5-5h-80c-2.761,0-5,2.239-5,5v30c0,2.761,2.239,5,5,5h80   C237.761,185,240,182.761,240,180z"/>
	<path id="XMLID_1384_" style="fill:#454748;" d="M250,227v6c0,1.105-0.895,2-2,2H0v-10h248C249.105,225,250,225.895,250,227z    M248,245H0v10h248c1.105,0,2-0.895,2-2v-6C250,245.895,249.105,245,248,245z"/>
	<path id="XMLID_1382_" style="fill:#CE7341;" d="M430,245L430,245c0-5.523,4.477-10,10-10h20v20h-20   C434.477,255,430,250.523,430,245z"/>
	<path id="XMLID_1381_" style="fill:#454748;" d="M280,135h50c5.523,0,10,4.477,10,10v170h-70V145C270,139.477,274.477,135,280,135z   "/>
	<path id="XMLID_1378_" style="fill:#555859;" d="M300,145v170h-20V150c0-2.761,2.239-5,5-5H300z M325,145h-15v170h20V150   C330,147.239,327.761,145,325,145z"/>
</g>















</svg>
