<?xml version="1.0" encoding="UTF-8"?>
<svg width="33px" height="23px" viewBox="0 0 33 23" version="1.1" xmlns="http://www.w3.org/2000/svg" xmlns:xlink="http://www.w3.org/1999/xlink">
    <!-- Generator: Sketch 52.5 (67469) - http://www.bohemiancoding.com/sketch -->
    <title>noun_School Bus_1917002</title>
    <desc>Created with Sketch.</desc>
    <g id="Page-1" stroke="none" stroke-width="1" fill="none" fill-rule="evenodd">
        <g id="map-small" transform="translate(-127.000000, -145.000000)">
            <g id="noun_School-Bus_1917002" transform="translate(145.117670, 155.016600) rotate(-28.000000) translate(-145.117670, -155.016600) translate(129.117670, 146.516600)">
                <path d="M18.250678,0.494088947 C18.9482097,0.538342154 21.9158228,0.874173959 23.3324891,2.07694744 C24.3815872,2.9676494 24.2410184,5.24926495 25.3652135,5.94647199 C27.0798821,7.00988083 28.9987731,5.30165328 29.4306623,6.64789475 C30.4470246,9.81599654 30.4470246,11.7507588 27.3979379,11.7507588 C25.2050656,11.7507588 26.4872747,10.0241353 25.3652135,9.81599654 C19.746574,8.7737572 20.9593448,11.8499148 20.2834024,12.71814 C19.8571562,13.2656388 18.250678,13.6855211 10.1197803,12.71814 C7.24415322,12.3760095 8.66355268,9.19762427 6.05433147,8.8486154 C-0.141275104,8.01989241 1.98888263,19.4898079 1.03852441,0.494088947 C6.9252864,0.368127862 12.3754656,0.121350345 18.250678,0.494088947 Z" id="Path-2" stroke="#FDC03E" fill="#FDC03E" fill-rule="nonzero"></path>
                <path d="M4.92627502,16.0726516 C3.42979458,16.0730378 2.09864977,15.1218434 1.6141185,13.7058883 C1.12958724,12.2899333 1.59889343,10.72256 2.78184688,9.80594783 C3.96480033,8.88933566 5.5996204,8.82632546 6.84960864,9.64916575 C8.09959689,10.472006 8.68813827,11.9986071 8.3140182,13.4476568 C7.91847099,14.9948399 6.5231246,16.0760248 4.92627502,16.0726516 Z M4.92627502,10.1450719 C3.64236869,10.139405 2.57507773,11.1325172 2.48832467,12.4135802 C2.40157162,13.6946432 3.32522482,14.8225979 4.59817166,14.9901012 C5.87111851,15.1576044 7.05509429,14.3069863 7.30265832,13.047084 C7.55022235,11.7871816 6.77614045,10.5517686 5.53446829,10.2251023 C5.33614564,10.1711234 5.13179369,10.1424407 4.92627502,10.1397366 L4.92627502,10.1450719 Z" id="Shape" fill="#032A4A" fill-rule="nonzero"></path>
                <path d="M4.9253816,14.0726595 C4.09695448,14.0726595 3.4253816,13.4010866 3.4253816,12.5726595 C3.4253816,11.7442324 4.09695448,11.0726595 4.9253816,11.0726595 C5.75380873,11.0726595 6.4253816,11.7442324 6.4253816,12.5726595 C6.4253816,12.9704842 6.26734634,13.3520151 5.98604177,13.6333196 C5.7047372,13.9146242 5.32320634,14.0726595 4.9253816,14.0726595 Z M4.9253816,12.1051937 C4.66437031,12.1051937 4.45277886,12.3167852 4.45277886,12.5777965 C4.45277886,12.8388077 4.66437031,13.0503992 4.9253816,13.0503992 C5.18639289,13.0503992 5.39798434,12.8388077 5.39798434,12.5777965 C5.39935648,12.4515667 5.35017096,12.3300345 5.2613916,12.2402901 C5.17261223,12.1505458 5.05161878,12.1000493 4.9253816,12.1000567 L4.9253816,12.1051937 Z" id="Shape" fill="#032A4A" fill-rule="nonzero"></path>
                <path d="M24.9262235,16.1180659 C23.429743,16.118452 22.0985982,15.1672577 21.6140669,13.7513026 C21.1295357,12.3353475 21.5988419,10.7679742 22.7817953,9.85136208 C23.9647488,8.93474991 25.5995688,8.87173971 26.8495571,9.69458 C28.0995453,10.5174203 28.6880867,12.0440214 28.3139666,13.4930711 C27.9184194,15.0402541 26.523073,16.1214391 24.9262235,16.1180659 Z M24.9262235,10.1904862 C23.6423171,10.1848192 22.5750262,11.1779315 22.4882731,12.4589945 C22.4015201,13.7400575 23.3251733,14.8680122 24.5981201,15.0355154 C25.8710669,15.2030187 27.0550427,14.3524006 27.3026068,13.0924982 C27.5501708,11.8325959 26.7760889,10.5971828 25.5344167,10.2705165 C25.3360941,10.2165376 25.1317421,10.1878549 24.9262235,10.1851508 L24.9262235,10.1904862 Z" id="Shape" fill="#032A4A" fill-rule="nonzero"></path>
                <path d="M24.92533,14.1180737 C24.0969029,14.1180737 23.42533,13.4465008 23.42533,12.6180737 C23.42533,11.7896466 24.0969029,11.1180737 24.92533,11.1180737 C25.7537572,11.1180737 26.42533,11.7896466 26.42533,12.6180737 C26.42533,13.0158985 26.2672948,13.3974293 25.9859902,13.6787339 C25.7046856,13.9600385 25.3231548,14.1180737 24.92533,14.1180737 Z M24.92533,12.150608 C24.6643188,12.150608 24.4527273,12.3621994 24.4527273,12.6232107 C24.4527273,12.884222 24.6643188,13.0958135 24.92533,13.0958135 C25.1863413,13.0958135 25.3979328,12.884222 25.3979328,12.6232107 C25.3993049,12.496981 25.3501194,12.3754487 25.26134,12.2857044 C25.1725607,12.19596 25.0515672,12.1454635 24.92533,12.145471 L24.92533,12.150608 Z" id="Shape" fill="#032A4A" fill-rule="nonzero"></path>
                <rect id="Rectangle" fill="#032A4A" x="10.2239913" y="12.6971816" width="11" height="1"></rect>
                <path d="M28.5856439,13.2967362 L26.9320166,13.2967362 L26.9320166,12.2662176 L28.5856439,12.2662176 C29.3314836,12.2662176 29.9361062,11.7010285 29.9361062,11.0038323 L29.9361062,7.98956538 C29.9361062,7.29236924 29.3314836,6.72718009 28.5856439,6.72718009 L24.6775713,6.72718009 L24.6775713,5.92852817 C24.6775731,3.38933021 22.477143,1.33010603 19.7607861,1.32726259 L1.87405072,1.32726259 C1.46827629,1.33009334 1.14093131,1.63838963 1.14094261,2.01771005 L1.14094261,11.5860753 C1.14239903,11.7678284 1.22103726,11.941596 1.35955662,12.0691485 C1.49807598,12.1967011 1.68512881,12.2675893 1.87956281,12.2662176 L2.98198102,12.2662176 L2.98198102,13.2967362 L1.87956281,13.2967362 C1.3927503,13.2981048 0.925294989,13.1186434 0.580032836,12.7978318 C0.234770684,12.4770202 0.0399841099,12.041138 0.0385244055,11.5860753 L0.0385244055,2.01771005 C0.0385244055,1.06724674 0.862785376,0.296743981 1.87956281,0.296743981 L19.7607861,0.296743981 C22.9882271,0.302349221 25.6387769,2.68237662 25.7744775,5.69666148 L28.5856439,5.69666148 C29.9390748,5.699495 31.0354932,6.72440507 31.0385244,7.98956538 L31.0385244,11.0038323 C31.0354932,12.2689926 29.9390748,13.2939027 28.5856439,13.2967362 Z" id="Path" fill="#032A4A"></path>
                <path d="M4.44193767,5.66995628 L3.05118137,5.66995628 C2.60564073,5.66995628 2.24445868,5.30877423 2.24445868,4.86323359 L2.24445868,3.47667897 C2.24445868,3.26272281 2.32945243,3.05752973 2.48074228,2.90623988 C2.63203214,2.75495003 2.83722521,2.66995628 3.05118137,2.66995628 L4.43773599,2.66995628 C4.65169215,2.66995628 4.85688522,2.75495003 5.00817507,2.90623988 C5.15946493,3.05752973 5.24445868,3.26272281 5.24445868,3.47667897 L5.24445868,4.86323359 C5.2444647,5.30713851 4.88583657,5.66764427 4.44193767,5.66995628 Z M3.08479481,4.82962014 L4.40832423,4.82962014 L4.40832423,3.50609073 L3.08479481,3.50609073 L3.08479481,4.82962014 Z" id="Shape" fill="#032A4A" fill-rule="nonzero"></path>
                <path d="M9.4377231,5.68130984 L8.05116848,5.68130984 C7.60562784,5.68130984 7.24444579,5.32012779 7.24444579,4.87458715 L7.24444579,3.48803253 C7.24444579,3.27407637 7.32943954,3.0688833 7.48072939,2.91759344 C7.63201925,2.76630359 7.83721232,2.68130984 8.05116848,2.68130984 L9.4377231,2.68130984 C9.65167926,2.68130984 9.85687233,2.76630359 10.0081622,2.91759344 C10.159452,3.0688833 10.2444458,3.27407637 10.2444458,3.48803253 L10.2444458,4.87458715 C10.2444458,5.32012779 9.88326374,5.68130984 9.4377231,5.68130984 Z M8.08058024,4.8409737 L9.40410965,4.8409737 L9.40410965,3.51744429 L8.06377352,3.51744429 L8.08058024,4.8409737 Z" id="Shape" fill="#032A4A" fill-rule="nonzero"></path>
                <path d="M21.6022941,5.50719648 L18.6929055,5.50719648 C18.4149493,5.50719648 18.1483775,5.42220272 17.9518329,5.27091287 C17.7552882,5.11962302 17.6448705,4.91442995 17.6448705,4.70047379 L17.6448705,3.31391917 C17.6448705,3.09996301 17.7552882,2.89476993 17.9518329,2.74348008 C18.1483775,2.59219023 18.4149493,2.50719648 18.6929055,2.50719648 L20.5105911,2.50719648 C21.6893211,2.50719648 22.6448705,3.24272867 22.6448705,4.15005362 L22.6448705,4.70047379 C22.6448784,5.14437871 22.178975,5.50488447 21.6022941,5.50719648 Z M18.7638662,4.66686034 L21.5640845,4.66686034 L21.5640845,4.14585194 C21.5640998,3.93154613 21.4527599,3.72613786 21.2548714,3.57539207 C21.0569828,3.42464627 20.7889862,3.34108689 20.5105911,3.34333093 L18.7365736,3.34333093 L18.7638662,4.66686034 Z" id="Shape" fill="#032A4A" fill-rule="nonzero"></path>
                <path d="M15.9037595,13.894015 L12.7660292,13.894015 C12.2517776,13.894015 11.8348944,13.4460877 11.8348944,12.8935413 L11.8348944,3.89448871 C11.8348944,3.62914658 11.9329958,3.37467218 12.1076174,3.18704697 C12.2822391,2.99942175 12.5190769,2.894015 12.7660292,2.894015 L15.9037595,2.894015 C16.1507118,2.894015 16.3875496,2.99942175 16.5621713,3.18704697 C16.7367929,3.37467218 16.8348944,3.62914658 16.8348944,3.89448871 L16.8348944,12.8935413 C16.8348944,13.4460877 16.4180111,13.894015 15.9037595,13.894015 Z M12.8048265,12.8518549 L15.8649623,12.8518549 L15.8649623,3.93096431 L12.8048265,3.93096431 L12.8048265,12.8518549 Z" id="Shape" fill="#032A4A" fill-rule="nonzero"></path>
            </g>
        </g>
    </g>
</svg>