<?xml version="1.0" encoding="UTF-8"?>
<svg width="23px" height="22px" viewBox="0 0 23 22" version="1.1" xmlns="http://www.w3.org/2000/svg" xmlns:xlink="http://www.w3.org/1999/xlink">
    <!-- Generator: Sketch 52.5 (67469) - http://www.bohemiancoding.com/sketch -->
    <title>noun_setting_2019081 copy</title>
    <desc>Created with Sketch.</desc>
    <g id="Page-1" stroke="none" stroke-width="1" fill="none" fill-rule="evenodd">
        <g id="Dashboard" transform="translate(-279.000000, -16.000000)" fill="#032A4A" fill-rule="nonzero" stroke="#032A4A" stroke-width="0.75">
            <g id="noun_setting_2019081-copy" transform="translate(279.893333, 16.093333)">
                <path d="M12.3359179,21.3333333 L9.44114872,21.3333333 C8.87521833,21.3315675 8.41687963,20.8732288 8.41511385,20.3072985 L8.41511385,19.0528985 C8.41556161,18.8843257 8.30997755,18.7336753 8.15136821,18.6765785 C7.86644657,18.5774556 7.58725969,18.4625595 7.31510154,18.3324226 C7.16282618,18.2595929 6.98119294,18.2905092 6.86158769,18.4096164 L5.97707487,19.2941292 C5.57089025,19.6809153 4.93265847,19.6809153 4.52647385,19.2941292 L2.47762051,17.2452759 C2.07721649,16.8446338 2.07721649,16.195317 2.47762051,15.7946749 L3.38143179,14.8908636 C3.50703593,14.8273082 3.65937533,14.8528139 3.7574281,14.9538157 C3.85548086,15.0548174 3.87646268,15.2078455 3.80921436,15.3315118 L2.90540308,16.2353231 C2.8297839,16.3107513 2.78728541,16.4131686 2.78728541,16.5199754 C2.78728541,16.6267821 2.8297839,16.7291994 2.90540308,16.8046277 L4.95425641,18.853481 C5.11344805,19.0058288 5.36436938,19.0058288 5.52356103,18.853481 L6.41450667,17.9561026 C6.72112719,17.649572 7.18769544,17.5696625 7.57884718,17.7566851 C7.82988941,17.8783684 8.08761391,17.9857536 8.35078564,18.0783262 C8.75965701,18.2228839 9.03291924,18.6095758 9.03266462,19.0432492 L9.03266462,20.2976492 C9.03266462,20.519696 9.21266911,20.6997005 9.4347159,20.6997005 L12.3294851,20.6997005 C12.5515319,20.6997005 12.7315364,20.519696 12.7315364,20.2976492 L12.7315364,19.0432492 C12.7317618,18.6087394 13.0064913,18.2217964 13.4166318,18.0783262 C13.6786877,17.9855775 13.9353319,17.878195 14.1853538,17.7566851 C14.5781902,17.5665756 15.048379,17.6466627 15.3561272,17.9561026 L16.24064,18.8406154 C16.3153259,18.9164673 16.4172351,18.9593155 16.5236841,18.9596226 C16.6301332,18.9593155 16.7320423,18.9164673 16.8067282,18.8406154 L18.8587979,16.7885456 C18.9344171,16.7131174 18.9769156,16.6107001 18.9769156,16.5038933 C18.9769156,16.3970866 18.9344171,16.2946693 18.8587979,16.219241 L18.5371569,15.8976 C18.4215614,15.8291408 18.3606923,15.6960466 18.3845102,15.5638283 C18.4083281,15.4316099 18.511815,15.328123 18.6440334,15.3043051 C18.7762518,15.2804872 18.9093459,15.3413563 18.9778051,15.4569518 L19.2994462,15.7785928 C19.4927183,15.9711238 19.60136,16.232697 19.60136,16.5055015 C19.60136,16.778306 19.4927183,17.0398793 19.2994462,17.2324103 L17.2473764,19.2812636 C17.0547916,19.4741189 16.7930112,19.5818427 16.5204677,19.5803897 C16.2474589,19.5809921 15.9856123,19.4720825 15.793559,19.2780472 L14.9090462,18.3935344 C14.7899095,18.2735212 14.6076651,18.2425009 14.4555323,18.3163405 C14.1833553,18.446435 13.9041708,18.5613302 13.6192656,18.6604964 C13.4600401,18.7167845 13.3541017,18.8679404 13.35552,19.0368164 L13.35552,20.2912164 C13.3589512,20.5647484 13.2533519,20.8283941 13.0620442,21.0239264 C12.8707364,21.2194586 12.6094596,21.3307903 12.3359179,21.3333333 Z M17.8263303,15.0613333 C17.7177318,15.0556419 17.6193631,14.9954607 17.5648511,14.9013626 C17.510339,14.8072644 17.5070664,14.6919932 17.5561518,14.5949538 C17.7705465,14.216304 17.9503229,13.8190736 18.0932923,13.4080985 C18.2367625,12.997958 18.6237055,12.7232285 19.0582154,12.7230031 L20.3126154,12.7230031 C20.5346622,12.7230031 20.7146667,12.5429986 20.7146667,12.3209518 L20.7146667,11.1662605 C20.6821045,11.036336 20.7334676,10.8998322 20.8436012,10.8236007 C20.9537348,10.7473691 21.0995821,10.7473691 21.2097158,10.8236007 C21.3198494,10.8998322 21.3712124,11.036336 21.3386503,11.1662605 L21.3386503,12.330601 C21.3368845,12.8965314 20.8785458,13.3548701 20.3126154,13.3566359 L19.0582154,13.3566359 C18.8896426,13.3561881 18.7389922,13.4617722 18.6818954,13.6203815 C18.5260088,14.0660299 18.3300796,14.4966436 18.0965087,14.9069456 C18.0389931,15.0014476 17.9369476,15.0597593 17.8263303,15.0613333 Z M3.73202051,14.6657149 C3.61322881,14.6629625 3.50563155,14.5949412 3.45219282,14.4888123 C3.31549327,14.2076118 3.19521214,13.9187223 3.09195487,13.6235979 C3.03594147,13.4637198 2.88504126,13.3566709 2.71563487,13.3566359 L1.46123487,13.3566359 C0.895304486,13.3548701 0.436965786,12.8965314 0.4352,12.330601 L0.4352,9.43583179 C0.436965786,8.86990141 0.895304486,8.41156271 1.46123487,8.40979692 L2.71563487,8.40979692 C2.88420762,8.41024468 3.03485804,8.30466063 3.09195487,8.14605128 C3.19104036,7.86111548 3.30593734,7.58192654 3.43611077,7.30978462 C3.46325381,7.17881283 3.56861907,7.07830857 3.70072599,7.05737735 C3.8328329,7.03644614 3.96410576,7.09945711 4.03040576,7.21562364 C4.09670576,7.33179018 4.08419358,7.47686392 3.99898256,7.57996308 C3.8773305,7.83101938 3.76994604,8.08874209 3.67734154,8.35190154 C3.53278377,8.7607729 3.14609193,9.03403513 2.71241846,9.03378051 L1.45801846,9.03378051 C1.23597167,9.03378051 1.05596718,9.213785 1.05596718,9.43583179 L1.05596718,12.330601 C1.05596718,12.5526478 1.23597167,12.7326523 1.45801846,12.7326523 L2.71241846,12.7326523 C3.14661992,12.7338421 3.53306252,13.0082164 3.67734154,13.4177477 C3.76898033,13.690704 3.87637436,13.9581151 3.99898256,14.2186338 C4.04010062,14.315346 4.03137938,14.4260461 3.97562415,14.5151263 C3.91986891,14.6042065 3.82411206,14.6604311 3.71915487,14.6657149 L3.73202051,14.6657149 Z M10.8853169,13.7747692 C10.6820036,13.7756145 10.4792168,13.7540414 10.2806318,13.710441 C9.9368637,13.635655 9.60978185,13.4982807 9.31570872,13.3051733 C8.97791252,13.0851773 8.68978884,12.7970536 8.46979282,12.4592574 C8.27302364,12.1589391 8.13546663,11.8237804 8.06452513,11.4718195 C8.0184583,11.2778162 7.99365296,11.0793735 7.99054769,10.88 C7.99017966,10.3181125 8.15334641,9.76826296 8.46014359,9.29752615 C8.87693191,8.65401339 9.53345324,8.20359576 10.2838482,8.04634256 C10.4815307,8.0042352 10.6832051,7.98374421 10.8853169,7.98523077 C11.0284116,8.02109368 11.1287654,8.14970227 11.1287654,8.29722256 C11.1287654,8.44474286 11.0284116,8.57335145 10.8853169,8.60921436 C10.7274979,8.60820581 10.5700381,8.62438318 10.415721,8.65746051 C9.82499307,8.78008258 9.30819274,9.1346586 8.98120205,9.64168205 C8.74220864,10.0104992 8.6148782,10.4405187 8.61453128,10.88 C8.61373482,11.0356822 8.62991244,11.1909873 8.66277744,11.3431631 C8.71925866,11.619793 8.82845881,11.8829654 8.98441846,12.1183179 C9.15688622,12.3827807 9.38253623,12.6084307 9.64699897,12.7808985 C9.88099423,12.9350099 10.1416992,13.0440915 10.415721,13.1025395 C11.007225,13.225668 11.6234209,13.110059 12.1300677,12.7808985 C12.3908255,12.6129269 12.615074,12.3941479 12.7894318,12.1376164 C12.9442797,11.9016735 13.0533885,11.6387213 13.1110728,11.3624615 C13.1776105,11.0540173 13.1776105,10.7349304 13.1110728,10.4264862 C12.9883419,9.83582561 12.6353017,9.31841927 12.1300677,8.98875077 C12.0753887,8.95337026 12.0174933,8.91798974 11.9595979,8.88582564 C11.7997243,8.8058888 11.7349226,8.61148395 11.8148595,8.45161026 C11.8947963,8.29173657 12.0892012,8.22693495 12.2490749,8.30687179 C12.3241244,8.34761299 12.3981019,8.3915706 12.4710072,8.43874462 C13.1144005,8.85859068 13.5645094,9.51697632 13.7221908,10.2688821 C13.8076195,10.6642267 13.8076195,11.0732584 13.7221908,11.4686031 C13.6490682,11.8204256 13.5105038,12.1553803 13.3137067,12.456041 C13.0935405,12.7888864 12.8079116,13.0734208 12.4742236,13.2923077 C12.1738315,13.4889366 11.8387006,13.6264822 11.4867856,13.6975754 C11.2897215,13.7452204 11.0880259,13.7711065 10.8853169,13.7747692 Z M21.0266585,10.3332103 C20.849021,10.3332103 20.7050174,10.1892067 20.7050174,10.0115692 L20.7050174,9.42618256 C20.7050174,9.20413577 20.5250129,9.02413128 20.3029662,9.02413128 L19.0485662,9.02413128 C18.6148927,9.0243859 18.2282009,8.75112367 18.0836431,8.34225231 C17.990814,8.08127556 17.8834319,7.82570629 17.7620021,7.57674667 C17.5734392,7.18475138 17.6534372,6.71637567 17.9614195,6.40918974 L18.8491487,5.52146051 C18.9247679,5.44603226 18.9672664,5.34361495 18.9672664,5.23680821 C18.9672664,5.13000146 18.9247679,5.02758415 18.8491487,4.9521559 L16.8099446,2.90330256 C16.7345164,2.82768339 16.632099,2.7851849 16.5252923,2.7851849 C16.4184856,2.7851849 16.3160682,2.82768339 16.24064,2.90330256 L15.3561272,3.78781538 C15.0523231,4.09434304 14.5880652,4.17558817 14.1982195,3.99044923 C13.9762872,3.88430769 13.7479221,3.78781538 13.5163405,3.70418872 C13.3955248,3.62125022 13.3460451,3.46713153 13.3960041,3.329366 C13.445963,3.19160047 13.5827287,3.1050213 13.7286236,3.11880205 C13.9804964,3.21343466 14.2274052,3.32078635 14.4683979,3.44044308 C14.6193677,3.51139103 14.7986916,3.47913854 14.915479,3.36003282 L15.7999918,2.47552 C16.2006339,2.07511598 16.8499507,2.07511598 17.2505928,2.47552 L19.3026626,4.52437333 C19.4959347,4.71690429 19.6045764,4.97847756 19.6045764,5.25128205 C19.6045764,5.52408654 19.4959347,5.78565982 19.3026626,5.97819077 L18.4149333,6.86592 C18.2958261,6.98552525 18.2649098,7.16715848 18.3377395,7.31943385 C18.4678696,7.5904971 18.582767,7.86861317 18.6818954,8.1524841 C18.7389922,8.31109345 18.8896426,8.4166775 19.0582154,8.41622974 L20.3126154,8.41622974 C20.8785458,8.41799553 21.3368845,8.87633423 21.3386503,9.44226462 L21.3386503,10.0373005 C21.3255577,10.2011749 21.1909959,10.3288005 21.0266585,10.3332103 Z M3.37821538,6.74048 C3.29540262,6.74015021 3.21590809,6.70789156 3.15628308,6.65042051 L2.47118769,5.96532513 C2.07078367,5.56468298 2.07078367,4.91536625 2.47118769,4.5147241 L4.52004103,2.46587077 C4.9214124,2.06723189 5.56927068,2.06723189 5.97064205,2.46587077 L6.85515487,3.35038359 C6.97476012,3.46949082 7.15639336,3.50040712 7.30866872,3.42757744 C7.57978068,3.29755648 7.8578906,3.18266165 8.14171897,3.08342154 C8.30094455,3.0271335 8.40688289,2.87597757 8.40546462,2.70710154 L8.40546462,1.45270154 C8.4072304,0.886771152 8.8655691,0.428432453 9.43149949,0.426666667 L12.3262687,0.426666667 C12.8921991,0.428432453 13.3505378,0.886771152 13.3523036,1.45270154 L13.3523036,2.73926564 C13.3848657,2.86919013 13.3335027,3.00569393 13.2233691,3.0819255 C13.1132355,3.15815707 12.9673881,3.15815707 12.8572545,3.0819255 C12.7471209,3.00569393 12.6957579,2.86919013 12.72832,2.73926564 L12.72832,1.45270154 C12.72832,1.23065475 12.5483155,1.05065026 12.3262687,1.05065026 L9.43149949,1.05065026 C9.2094527,1.05065026 9.02944821,1.23065475 9.02944821,1.45270154 L9.02944821,2.70388513 C9.02922279,3.13839501 8.75449327,3.525338 8.34435282,3.66880821 C8.08235713,3.76171286 7.82572152,3.86909178 7.57563077,3.99044923 C7.18447903,4.17747185 6.71791078,4.09756237 6.41129026,3.79103179 L5.52999385,2.90330256 C5.4545656,2.82768339 5.35214828,2.7851849 5.24534154,2.7851849 C5.1385348,2.7851849 5.03611748,2.82768339 4.96068923,2.90330256 L2.9118359,4.9521559 C2.83621672,5.02758415 2.79371823,5.13000146 2.79371823,5.23680821 C2.79371823,5.34361495 2.83621672,5.44603226 2.9118359,5.52146051 L3.59693128,6.2065559 C3.67832136,6.29875789 3.70000887,6.42930056 3.65280374,6.54286653 C3.60559861,6.65643249 3.49776564,6.73313833 3.37499897,6.74048 L3.37821538,6.74048 Z" id="Shape"></path>
            </g>
        </g>
    </g>
</svg>