<?xml version="1.0" encoding="UTF-8"?>
<svg width="18px" height="18px" viewBox="0 0 18 18" version="1.1" xmlns="http://www.w3.org/2000/svg" xmlns:xlink="http://www.w3.org/1999/xlink">
    <!-- Generator: Sketch 52.5 (67469) - http://www.bohemiancoding.com/sketch -->
    <title>noun_profile_781965</title>
    <desc>Created with Sketch.</desc>
    <g id="Page-1" stroke="none" stroke-width="1" fill="none" fill-rule="evenodd">
        <g id="Dashboard" transform="translate(-131.000000, -355.000000)" fill="#032A4A" fill-rule="nonzero" stroke="#032A4A" stroke-width="0.3">
            <g id="Group-3" transform="translate(37.000000, 276.000000)">
                <g id="noun_profile_781965" transform="translate(95.000000, 80.000000)">
                    <path d="M0,12.328787 L0,15.5762359 C0,15.8097817 0.18995096,16 0.423757079,16 L15.5762429,16 C15.8097849,16 16,15.8100459 16,15.5762359 L16,12.328787 C16,10.1254252 14.77549,8.13368119 12.8041213,7.13107229 L12.2889553,6.86899376 L12.4802272,6.32370133 C12.6606674,5.80905518 12.7523405,5.28014266 12.7523405,4.75228691 C12.7523405,2.13176579 10.6206099,0 8.00013209,0 C5.37965424,0 3.24792365,2.13176579 3.24792365,4.75228691 C3.24792365,5.28014266 3.33959678,5.80905518 3.52003699,6.32396552 L3.71130888,6.86925795 L3.19614286,7.13133648 C1.22451001,8.13368119 0,10.1254252 0,12.328787 Z M7.99986791,0.844093656 C10.154847,0.844093656 11.9079966,2.59727222 11.9079966,4.75228691 C11.9079966,6.90730161 10.154847,8.66048017 7.99986791,8.66048017 C5.84488879,8.66048017 4.09173918,6.90730161 4.09173918,4.75228691 C4.09173918,2.59727222 5.84488879,0.844093656 7.99986791,0.844093656 Z M3.73587834,7.80740398 L4.17442993,7.60318351 L4.50149431,7.95957861 C5.4021102,8.94158053 6.67734425,9.50483802 8.00013209,9.50483802 C9.32291993,9.50483802 10.5978898,8.94158053 11.4987699,7.95957861 L11.8258343,7.60291932 L12.2643858,7.80713979 C14.0209699,8.62507843 15.1561845,10.3999207 15.1561845,12.328787 L15.1561845,15.1559063 L0.844079719,15.1559063 L0.844079719,12.328787 C0.844079719,10.3999207 1.9790301,8.62534262 3.73587834,7.80740398 Z" id="Shape"></path>
                </g>
            </g>
        </g>
    </g>
</svg>