<?xml version="1.0" encoding="UTF-8"?>
<svg width="30px" height="16px" viewBox="0 0 30 16" version="1.1" xmlns="http://www.w3.org/2000/svg" xmlns:xlink="http://www.w3.org/1999/xlink">
    <!-- Generator: Sketch 52.5 (67469) - http://www.bohemiancoding.com/sketch -->
    <title>noun_School Bus_1917002</title>
    <desc>Created with Sketch.</desc>
    <g id="Page-1" stroke="none" stroke-width="1" fill="none" fill-rule="evenodd">
        <g id="Dashboard" transform="translate(-115.000000, -376.000000)" fill="#032A4A">
            <g id="noun_School-Bus_1917002" transform="translate(115.000000, 376.000000)">
                <path d="M5.50089342,15.9999921 C4.00441298,16.0003783 2.67326817,15.0491839 2.1887369,13.6332289 C1.70420564,12.2172738 2.17351183,10.6499005 3.35646528,9.73328835 C4.53941872,8.81667619 6.1742388,8.75366598 7.42422704,9.57650627 C8.67421529,10.3993466 9.26275667,11.9259476 8.8886366,13.3749974 C8.49308939,14.9221804 7.097743,16.0033654 5.50089342,15.9999921 Z M5.50089342,10.0724125 C4.21698709,10.0667455 3.14969613,11.0598578 3.06294307,12.3409208 C2.97619002,13.6219838 3.89984322,14.7499384 5.17279006,14.9174417 C6.44573691,15.084945 7.62971269,14.2343269 7.87727672,12.9744245 C8.12484075,11.7145221 7.35075885,10.4791091 6.10908669,10.1524428 C5.91076404,10.0984639 5.70641209,10.0697812 5.50089342,10.0670771 L5.50089342,10.0724125 Z" id="Shape" fill-rule="nonzero"></path>
                <path d="M5.5,14 C4.67157288,14 4,13.3284271 4,12.5 C4,11.6715729 4.67157288,11 5.5,11 C6.32842712,11 7,11.6715729 7,12.5 C7,12.8978247 6.84196474,13.2793556 6.56066017,13.5606602 C6.2793556,13.8419647 5.89782473,14 5.5,14 Z M5.5,12.0325342 C5.23898871,12.0325342 5.02739726,12.2441257 5.02739726,12.505137 C5.02739726,12.7661483 5.23898871,12.9777397 5.5,12.9777397 C5.76101129,12.9777397 5.97260274,12.7661483 5.97260274,12.505137 C5.97397488,12.3789073 5.92478936,12.257375 5.83600999,12.1676306 C5.74723063,12.0778863 5.62623718,12.0273898 5.5,12.0273973 L5.5,12.0325342 Z" id="Shape" fill-rule="nonzero"></path>
                <path d="M23.5008934,15.9999921 C22.004413,16.0003783 20.6732682,15.0491839 20.1887369,13.6332289 C19.7042056,12.2172738 20.1735118,10.6499005 21.3564653,9.73328835 C22.5394187,8.81667619 24.1742388,8.75366598 25.424227,9.57650627 C26.6742153,10.3993466 27.2627567,11.9259476 26.8886366,13.3749974 C26.4930894,14.9221804 25.097743,16.0033654 23.5008934,15.9999921 Z M23.5008934,10.0724125 C22.2169871,10.0667455 21.1496961,11.0598578 21.0629431,12.3409208 C20.97619,13.6219838 21.8998432,14.7499384 23.1727901,14.9174417 C24.4457369,15.084945 25.6297127,14.2343269 25.8772767,12.9744245 C26.1248407,11.7145221 25.3507588,10.4791091 24.1090867,10.1524428 C23.910764,10.0984639 23.7064121,10.0697812 23.5008934,10.0670771 L23.5008934,10.0724125 Z" id="Shape" fill-rule="nonzero"></path>
                <path d="M23.5,14 C22.6715729,14 22,13.3284271 22,12.5 C22,11.6715729 22.6715729,11 23.5,11 C24.3284271,11 25,11.6715729 25,12.5 C25,12.8978247 24.8419647,13.2793556 24.5606602,13.5606602 C24.2793556,13.8419647 23.8978247,14 23.5,14 Z M23.5,12.0325342 C23.2389887,12.0325342 23.0273973,12.2441257 23.0273973,12.505137 C23.0273973,12.7661483 23.2389887,12.9777397 23.5,12.9777397 C23.7610113,12.9777397 23.9726027,12.7661483 23.9726027,12.505137 C23.9739749,12.3789073 23.9247894,12.257375 23.83601,12.1676306 C23.7472306,12.0778863 23.6262372,12.0273898 23.5,12.0273973 L23.5,12.0325342 Z" id="Shape" fill-rule="nonzero"></path>
                <rect id="Rectangle" x="10" y="13" width="10" height="1"></rect>
                <path d="M27.6262447,12.9999922 L26.0259602,12.9999922 L26.0259602,11.9694736 L27.6262447,11.9694736 C28.3480251,11.9694736 28.9331437,11.4042845 28.9331437,10.7070883 L28.9331437,7.6928214 C28.9331437,6.99562526 28.3480251,6.43043611 27.6262447,6.43043611 L23.844239,6.43043611 L23.844239,5.63178419 C23.8442406,3.09258623 21.7147922,1.03336205 19.0860597,1.03051861 L1.77631579,1.03051861 C1.38363086,1.03334936 1.06684539,1.34164565 1.06685633,1.72096607 L1.06685633,11.2893313 C1.06826576,11.4710845 1.14436728,11.644852 1.27841827,11.7724046 C1.41246926,11.8999571 1.59348813,11.9708453 1.78165007,11.9694736 L2.8485064,11.9694736 L2.8485064,12.9999922 L1.78165007,12.9999922 C1.31054119,13.0013608 0.858165081,12.8218994 0.524040417,12.5010878 C0.189915753,12.1802762 0.00141261717,11.744394 0,11.2893313 L0,1.72096607 C0,0.770502756 0.797671907,0 1.78165007,0 L19.0860597,0 C22.2093897,0.00560524017 24.7744379,2.38563264 24.905761,5.3999175 L27.6262447,5.3999175 C28.9360165,5.40275102 29.9970666,6.42766108 30,7.6928214 L30,10.7070883 C29.9970666,11.9722486 28.9360165,12.9971587 27.6262447,12.9999922 Z" id="Path"></path>
                <path d="M4.19747899,6 L2.80672269,6 C2.36118205,6 2,5.63881795 2,5.19327731 L2,3.80672269 C2,3.59276653 2.08499375,3.38757346 2.23628361,3.23628361 C2.38757346,3.08499375 2.59276653,3 2.80672269,3 L4.19327731,3 C4.40723347,3 4.61242654,3.08499375 4.76371639,3.23628361 C4.91500625,3.38757346 5,3.59276653 5,3.80672269 L5,5.19327731 C5.00000602,5.63718224 4.6413779,5.997688 4.19747899,6 Z M2.84033613,5.15966387 L4.16386555,5.15966387 L4.16386555,3.83613445 L2.84033613,3.83613445 L2.84033613,5.15966387 Z" id="Shape" fill-rule="nonzero"></path>
                <path d="M8.19327731,6 L6.80672269,6 C6.36118205,6 6,5.63881795 6,5.19327731 L6,3.80672269 C6,3.59276653 6.08499375,3.38757346 6.23628361,3.23628361 C6.38757346,3.08499375 6.59276653,3 6.80672269,3 L8.19327731,3 C8.40723347,3 8.61242654,3.08499375 8.76371639,3.23628361 C8.91500625,3.38757346 9,3.59276653 9,3.80672269 L9,5.19327731 C9,5.63881795 8.63881795,6 8.19327731,6 Z M6.83613445,5.15966387 L8.15966387,5.15966387 L8.15966387,3.83613445 L6.81932773,3.83613445 L6.83613445,5.15966387 Z" id="Shape" fill-rule="nonzero"></path>
                <path d="M20.9574236,6 L18.0480349,6 C17.7700788,6 17.503507,5.91500625 17.3069623,5.76371639 C17.1104176,5.61242654 17,5.40723347 17,5.19327731 L17,3.80672269 C17,3.59276653 17.1104176,3.38757346 17.3069623,3.23628361 C17.503507,3.08499375 17.7700788,3 18.0480349,3 L19.8657205,3 C21.0444505,3 22,3.7355322 22,4.64285714 L22,5.19327731 C22.0000078,5.63718224 21.5341045,5.997688 20.9574236,6 Z M18.1189956,5.15966387 L20.919214,5.15966387 L20.919214,4.63865546 C20.9192292,4.42434965 20.8078893,4.21894139 20.6100008,4.06819559 C20.4121123,3.9174498 20.1441157,3.83389041 19.8657205,3.83613445 L18.0917031,3.83613445 L18.1189956,5.15966387 Z" id="Shape" fill-rule="nonzero"></path>
                <path d="M15.0688652,14 L11.9311348,14 C11.4168833,14 11,13.5520727 11,12.9995263 L11,4.00047371 C11,3.73513158 11.0981014,3.48065718 11.2727231,3.29303197 C11.4473447,3.10540675 11.6841825,3 11.9311348,3 L15.0688652,3 C15.3158175,3 15.5526553,3.10540675 15.7272769,3.29303197 C15.9018986,3.48065718 16,3.73513158 16,4.00047371 L16,12.9995263 C16,13.5520727 15.5831167,14 15.0688652,14 Z M11.9699321,12.9578399 L15.0300679,12.9578399 L15.0300679,4.03694931 L11.9699321,4.03694931 L11.9699321,12.9578399 Z" id="Shape" fill-rule="nonzero"></path>
            </g>
        </g>
    </g>
</svg>