<?xml version="1.0" encoding="UTF-8"?>
<svg width="22px" height="16px" viewBox="0 0 22 16" version="1.1" xmlns="http://www.w3.org/2000/svg" xmlns:xlink="http://www.w3.org/1999/xlink">
    <!-- Generator: Sketch 52.5 (67469) - http://www.bohemiancoding.com/sketch -->
    <title>noun_School_1061466</title>
    <desc>Created with Sketch.</desc>
    <g id="Page-1" stroke="none" stroke-width="1" fill="none" fill-rule="evenodd">
        <g id="Dashboard" transform="translate(-104.000000, -338.000000)" fill="#032A4A" fill-rule="nonzero">
            <g id="Group-3" transform="translate(37.000000, 276.000000)">
                <g id="noun_School_1061466" transform="translate(67.000000, 62.000000)">
                    <g id="Group">
                        <path d="M10.3384309,0.0368564706 L5.52986497,0.0368564706 C5.51484646,0.0361095098 5.49980316,0.0361095098 5.48478465,0.0368564706 C5.40713862,0.0442904303 5.3323618,0.0716225311 5.26689639,0.116498039 L0.458330592,3.42951745 C0.321457872,3.52429186 0.239385179,3.68628228 0.240442433,3.85957275 L0.240442433,6.11337255 C0.239952621,6.12664787 0.239952621,6.13993841 0.240442433,6.15321373 L0.240442433,6.6628902 C0.239483102,6.68145864 0.239483102,6.70006881 0.240442433,6.71863725 L0.240442433,15.3277216 C0.240465604,15.6092095 0.455737877,15.8373954 0.721299023,15.8374235 L6.49157815,15.8374235 C6.50659666,15.8381705 6.52163996,15.8381705 6.53665847,15.8374235 L15.1469968,15.8374235 L20.9172758,15.8374235 C21.182837,15.8373954 21.3981093,15.6092095 21.3981324,15.3277216 L21.3981324,6.70273137 C21.3986222,6.68945605 21.3986222,6.67616551 21.3981324,6.6628902 L21.3981324,6.15321373 C21.3988374,6.13729112 21.3988374,6.12134222 21.3981324,6.10541961 L21.3981324,3.85957275 C21.3991897,3.68628231 21.3171171,3.52429189 21.1802444,3.42951745 L16.3716785,0.116498039 C16.2931414,0.0635334961 16.2017905,0.0358673459 16.1087099,0.0368564706 L11.300144,0.0368564706 L10.3384309,0.0368564706 Z M5.66510593,1.05624765 L10.3384309,1.05624765 L10.3384309,3.14281392 C9.03198232,3.34924118 8.10552858,4.37532098 7.98674158,5.64351176 L6.64935915,5.64351176 L3.87692053,3.68436588 C3.78154687,3.618047 3.66703919,3.58982054 3.55384494,3.60472686 C3.47619913,3.61216006 3.40142232,3.63949128 3.33595669,3.68436588 L1.20215561,5.18955686 L1.20215561,4.13035 L5.66510593,1.05624765 Z M11.300144,1.05624765 L15.973469,1.05624765 L20.4364192,4.13035 L20.4364192,5.18955686 L18.3026182,3.68436588 C18.2072446,3.618047 18.0927369,3.58982054 17.9795426,3.60472686 C17.9018969,3.6121601 17.8271202,3.63949132 17.7616546,3.68436588 L14.9892158,5.64351176 L13.6518333,5.64351176 C13.5330463,4.37532098 12.6065928,3.34924118 11.300144,3.14281392 L11.300144,1.05624765 Z M10.8192875,4.11442118 C12.043516,4.11442118 12.7427138,4.90124235 12.7427138,5.89836275 L12.7427138,6.15321373 C12.7427502,6.43469172 12.9580186,6.66286214 13.2235704,6.6628902 L14.6661402,6.6628902 L14.6661402,14.8180196 L12.9831421,14.8180196 L12.9831421,11.5050078 C12.9831421,11.0152647 12.7772286,10.5207549 12.3895848,10.1989157 C12.0019411,9.87707647 11.4676435,9.72107647 10.8192875,9.72107647 C10.1709314,9.72107647 9.63663384,9.87707647 9.24899007,10.1989157 C8.86134654,10.5207549 8.6554328,11.0152647 8.6554328,11.5050078 L8.6554328,14.8180196 L6.97243474,14.8180196 L6.97243474,6.6628902 L8.41500451,6.6628902 C8.68055628,6.66286214 8.8958247,6.43469172 8.8958611,6.15321373 L8.8958611,5.89836275 C8.8958611,4.90124235 9.59505893,4.11442118 10.8192875,4.11442118 Z M3.60643861,4.72764902 L6.01072156,6.42397059 L6.01072156,14.8180196 L1.20215561,14.8180196 L1.20215561,6.70273137 C1.20264542,6.68945605 1.20264542,6.67616551 1.20215561,6.6628902 L1.20215561,6.42397059 L3.60643861,4.72764902 Z M18.0321363,4.72764902 L20.4364192,6.42397059 L20.4364192,6.6628902 C20.4354599,6.68145864 20.4354599,6.70006881 20.4364192,6.71863725 L20.4364192,14.8180196 L15.6278534,14.8180196 L15.6278534,6.42397059 L18.0321363,4.72764902 Z M10.8192875,5.1338098 C10.0282735,5.1338098 9.37671769,5.82441569 9.37671769,6.6628902 C9.37671769,7.50133922 10.0282735,8.19199608 10.8192875,8.19199608 C11.6103011,8.19199608 12.2618572,7.50133922 12.2618572,6.6628902 C12.2618572,5.82441569 11.6103011,5.1338098 10.8192875,5.1338098 Z M10.8192875,6.15321373 C11.090553,6.15321373 11.300144,6.37536078 11.300144,6.6628902 C11.300144,6.95041961 11.090553,7.17259216 10.8192875,7.17259216 C10.5480219,7.17259216 10.3384309,6.95041961 10.3384309,6.6628902 C10.3384309,6.37536078 10.5480219,6.15321373 10.8192875,6.15321373 Z M2.64472543,6.6628902 C2.37916427,6.66291829 2.16389198,6.89110421 2.16386884,7.17259216 L2.16386884,9.21137451 C2.16389198,9.49286245 2.37916427,9.72104838 2.64472543,9.72107647 L4.56815179,9.72107647 C4.83371294,9.72104838 5.04898523,9.49286245 5.04900838,9.21137451 L5.04900838,7.17259216 C5.05008485,6.90875367 4.86104658,6.68764669 4.61323211,6.6628902 C4.5982136,6.66214324 4.5831703,6.66214324 4.56815179,6.6628902 L2.64472543,6.6628902 Z M17.0704231,6.6628902 C16.804862,6.66291829 16.5895897,6.89110421 16.5895665,7.17259216 L16.5895665,9.21137451 C16.5895897,9.49286245 16.804862,9.72104838 17.0704231,9.72107647 L18.9938495,9.72107647 C19.2594106,9.72104838 19.4746829,9.49286245 19.4747061,9.21137451 L19.4747061,7.17259216 C19.4757825,6.90875367 19.2867443,6.68764669 19.0389298,6.6628902 C19.0239113,6.66214324 19.008868,6.66214324 18.9938495,6.6628902 L17.0704231,6.6628902 Z M3.12558202,7.68229412 L4.0872952,7.68229412 L4.0872952,8.70167255 L3.12558202,8.70167255 L3.12558202,7.68229412 Z M17.5512797,7.68229412 L18.5129929,7.68229412 L18.5129929,8.70167255 L17.5512797,8.70167255 L17.5512797,7.68229412 Z M2.64472543,10.7404549 C2.37916427,10.740483 2.16389198,10.9686689 2.16386884,11.2501569 L2.16386884,13.2889392 C2.16389198,13.5704272 2.37916427,13.7986131 2.64472543,13.7986412 L4.56815179,13.7986412 C4.83371294,13.7986131 5.04898523,13.5704272 5.04900838,13.2889392 L5.04900838,11.2501569 C5.05008485,10.9863184 4.86104658,10.7652114 4.61323211,10.7404549 C4.5982136,10.7397079 4.5831703,10.7397079 4.56815179,10.7404549 L2.64472543,10.7404549 Z M10.8192875,10.7404549 C11.3177747,10.7404549 11.628883,10.8645157 11.7960273,11.0032843 C11.9631716,11.1420529 12.0214289,11.2888255 12.0214289,11.5050078 L12.0214289,14.8180196 L9.61714598,14.8180196 L9.61714598,11.5050078 C9.61714598,11.2888255 9.67540327,11.1420529 9.84254758,11.0032843 C10.0096919,10.8645157 10.3208002,10.7404549 10.8192875,10.7404549 Z M17.0704231,10.7404549 C16.804862,10.740483 16.5895897,10.9686689 16.5895665,11.2501569 L16.5895665,13.2889392 C16.5895897,13.5704272 16.804862,13.7986131 17.0704231,13.7986412 L18.9938495,13.7986412 C19.2594106,13.7986131 19.4746829,13.5704272 19.4747061,13.2889392 L19.4747061,11.2501569 C19.4757825,10.9863184 19.2867443,10.7652114 19.0389298,10.7404549 C19.0239113,10.7397079 19.008868,10.7397079 18.9938495,10.7404549 L17.0704231,10.7404549 Z M3.12558202,11.7598588 L4.0872952,11.7598588 L4.0872952,12.7792373 L3.12558202,12.7792373 L3.12558202,11.7598588 Z M17.5512797,11.7598588 L18.5129929,11.7598588 L18.5129929,12.7792373 L17.5512797,12.7792373 L17.5512797,11.7598588 Z" id="Shape"></path>
                    </g>
                </g>
            </g>
        </g>
    </g>
</svg>