<svg id="Layer_1" data-name="Layer 1" xmlns="http://www.w3.org/2000/svg" viewBox="0 0 440 63"><defs><style>.cls-1{fill:#3271ca;}.cls-2{fill:none;stroke:#fff;stroke-linecap:round;stroke-miterlimit:10;}</style></defs><title>sign-in</title><path class="cls-1" d="M428,9H247.25V7.58A7.58,7.58,0,0,0,239.67,0H200.32a7.57,7.57,0,0,0-7.57,7.57V9H12.05A12,12,0,0,0,0,21.05v40.8A1.16,1.16,0,0,0,1.15,63h437.7A1.16,1.16,0,0,0,440,61.85V21.05A12.06,12.06,0,0,0,428,9Z"/><line class="cls-2" x1="203.25" y1="15" x2="219.75" y2="6"/><line class="cls-2" x1="236.75" y1="15" x2="220.25" y2="6"/></svg>